<svg width="59" height="47" viewBox="0 0 59 47" fill="none" xmlns="http://www.w3.org/2000/svg">
<path d="M4.48764 39.2777C4.71752 39.5634 4.83998 39.9212 4.83356 40.2884C4.84529 40.5279 4.8032 40.767 4.71042 40.988C4.61763 41.209 4.47652 41.4062 4.29754 41.565C3.85095 41.9036 3.29769 42.0692 2.73933 42.0312H0V35.6262H2.68323C3.21289 35.5909 3.73833 35.7413 4.16977 36.0518C4.34305 36.1974 4.48026 36.3814 4.57058 36.5894C4.6609 36.7974 4.70185 37.0236 4.69021 37.2502C4.70595 37.6035 4.59543 37.9508 4.37857 38.2295C4.17037 38.484 3.88265 38.6604 3.56206 38.7301C3.92548 38.7967 4.25352 38.9908 4.48764 39.2777ZM1.27461 38.3109H2.42146C2.6821 38.3302 2.94097 38.2547 3.1507 38.0981C3.23681 38.0197 3.3038 37.9226 3.34649 37.814C3.38918 37.7055 3.40643 37.5886 3.39689 37.4723C3.40499 37.3564 3.38738 37.2402 3.34535 37.132C3.30332 37.0238 3.2379 36.9263 3.15381 36.8465C2.93781 36.6855 2.6709 36.6088 2.40276 36.6306H1.27461V38.3109ZM3.26289 40.7671C3.35493 40.6869 3.42729 40.5864 3.47432 40.4735C3.52134 40.3607 3.54178 40.2384 3.53402 40.1163C3.54104 39.9927 3.51967 39.8692 3.47158 39.7553C3.42349 39.6414 3.34995 39.54 3.25666 39.4592C3.03228 39.2922 2.75632 39.2102 2.47755 39.2277H1.27461V40.9892H2.49313C2.7674 41.0051 3.03889 40.9268 3.26289 40.7671Z" fill="#AFB1B8"/>
<path d="M9.97257 42.0312L8.47981 39.5281H7.91885V42.0312H6.63489V35.6263H9.06569C9.67841 35.5833 10.2842 35.7782 10.7579 36.1707C11.0977 36.5183 11.3026 36.9764 11.3358 37.4623C11.3689 37.9482 11.2281 38.4301 10.9387 38.8209C10.6388 39.1659 10.2291 39.3959 9.77935 39.4717L11.3687 42.0312H9.97257ZM7.91885 38.6551H8.96908C9.69832 38.6551 10.0629 38.3318 10.0629 37.6851C10.0704 37.5531 10.0504 37.4209 10.0043 37.297C9.95812 37.1731 9.88684 37.0602 9.79493 36.9655C9.56448 36.773 9.26769 36.6797 8.96908 36.7058H7.90639L7.91885 38.6551Z" fill="#AFB1B8"/>
<path d="M16.9907 40.7421H14.4321L13.9802 42.0312H12.6339L14.9837 35.6982H16.4391L18.7795 42.0312H17.4332L16.9907 40.7421ZM16.6479 39.7721L15.7129 37.0687L14.778 39.7721H16.6479Z" fill="#AFB1B8"/>
<path d="M25.7759 42.0312H24.5013L21.6436 37.6757V42.0312H20.3721V35.6262H21.6436L24.5013 40.0068V35.6262H25.7759V42.0312Z" fill="#AFB1B8"/>
<path d="M33.0496 40.4981C32.7861 40.9817 32.3845 41.375 31.8965 41.6276C31.3417 41.909 30.7259 42.0477 30.1046 42.0313H27.8358V35.6263H30.1046C30.7249 35.61 31.3398 35.7453 31.8965 36.0206C32.3844 36.2674 32.7864 36.6569 33.0496 37.1376C33.3119 37.6585 33.4486 38.2341 33.4486 38.8178C33.4486 39.4016 33.3119 39.9772 33.0496 40.4981ZM31.5911 40.3448C31.9549 39.9193 32.1549 39.377 32.1549 38.8163C32.1549 38.2555 31.9549 37.7133 31.5911 37.2878C31.1514 36.9024 30.578 36.7067 29.9955 36.7433H29.1104V40.8892H29.9955C30.578 40.9258 31.1514 40.7302 31.5911 40.3448Z" fill="#AFB1B8"/>
<path d="M17.7885 0C17.7885 0 34.24 6.236 33.891 15.2599V30.5229C33.891 30.5229 17.4519 24.2838 17.7947 15.2599L17.7885 0Z" fill="#AFB1B8"/>
<path d="M48.5476 26.9497C51.6546 24.8029 55.2485 23.4731 59.0001 23.0823V18.3044C54.6774 19.9771 51.0104 23.0101 48.5476 26.9497Z" fill="#AFB1B8"/>
<path d="M46.6809 28.389C49.2239 23.2477 53.6326 19.2804 59.0001 17.3031V3.53571C59.0001 3.53571 35.5708 12.4188 36.0663 25.2694V47C36.0663 47 37.1103 46.6026 38.7527 45.8579C38.7527 45.1633 38.7527 44.4624 38.8275 43.7584C39.3124 37.7925 42.1372 32.2642 46.6809 28.389Z" fill="#AFB1B8"/>
<path d="M44.4525 36.4616C44.5756 34.9546 44.8502 33.4638 45.2721 32.0123C42.4429 35.3589 40.7296 39.5116 40.3731 43.8866C40.3388 44.2997 40.3201 44.7127 40.3108 45.1382C41.6415 44.4968 43.1904 43.6958 44.8171 42.754C44.402 40.6841 44.2792 38.5659 44.4525 36.4616Z" fill="#AFB1B8"/>
<path d="M45.3843 36.5399C45.2284 38.4437 45.3258 40.3598 45.6741 42.2377C52.0753 38.3922 59.268 32.4504 58.9906 25.2694V24.6436C54.4172 25.1574 50.1384 27.1647 46.8116 30.3571C46.0327 32.3354 45.5517 34.4192 45.3843 36.5399Z" fill="#AFB1B8"/>
</svg>
